<?xml version="1.0" encoding="UTF-8"?><svg id="Layer_1" xmlns="http://www.w3.org/2000/svg" viewBox="0 0 442.74 120"><defs><style>.cls-1,.cls-2{fill:#101330;}.cls-2,.cls-3{fill-rule:evenodd;}.cls-3{fill:#ea4b71;}</style></defs><path class="cls-3" d="M204,48c-11.18,0-20.58-7.65-23.24-18h-27.51c-5.87,0-10.87,4.24-11.84,10.03l-.99,5.92c-.94,5.62-3.78,10.51-7.8,14.05,4.02,3.54,6.86,8.44,7.8,14.05l.99,5.92c.96,5.79,5.97,10.03,11.84,10.03h3.51c2.66-10.35,12.06-18,23.24-18,13.26,0,24,10.75,24,24s-10.74,24-24,24c-11.18,0-20.58-7.65-23.24-18h-3.51c-11.73,0-21.74-8.48-23.67-20.05l-.99-5.92c-.96-5.79-5.97-10.03-11.84-10.03h-9.51c-2.66,10.35-12.06,18-23.24,18s-20.58-7.65-23.24-18h-13.51c-2.66,10.35-12.06,18-23.24,18-13.25,0-24-10.75-24-24s10.75-24,24-24c11.18,0,20.58,7.65,23.24,18h13.51c2.66-10.35,12.06-18,23.24-18s20.58,7.65,23.24,18h9.51c5.87,0,10.87-4.24,11.84-10.03l.99-5.92c1.93-11.57,11.94-20.05,23.67-20.05h27.51c2.66-10.35,12.06-18,23.24-18,13.26,0,24,10.75,24,24s-10.74,24-24,24ZM204,36c6.63,0,12-5.37,12-12s-5.37-12-12-12-12,5.37-12,12,5.37,12,12,12ZM24,72c6.63,0,12-5.37,12-12s-5.37-12-12-12-12,5.37-12,12,5.37,12,12,12ZM96,60c0,6.63-5.37,12-12,12s-12-5.37-12-12,5.37-12,12-12,12,5.37,12,12ZM192,96c0,6.63-5.37,12-12,12s-12-5.37-12-12,5.37-12,12-12,12,5.37,12,12Z"/><path class="cls-2" d="M372.02,51.89v-.57c4.19-2.1,8.37-5.72,8.37-12.87,0-10.29-8.47-16.49-20.17-16.49s-20.55,6.58-20.55,16.68c0,6.86,4,10.58,8.37,12.68v.57c-4.85,1.72-10.66,6.86-10.66,15.44,0,10.39,8.56,17.63,22.74,17.63s22.46-7.24,22.46-17.63c0-8.58-5.71-13.63-10.56-15.44ZM360.12,30.73c4.76,0,8.28,3.05,8.28,8.2s-3.62,8.2-8.28,8.2-8.56-3.05-8.56-8.2,3.71-8.2,8.56-8.2ZM360.12,75.81c-5.52,0-9.99-3.53-9.99-9.53,0-5.43,3.71-9.53,9.9-9.53s9.8,4,9.8,9.72-4.28,9.34-9.71,9.34Z"/><path class="cls-1" d="M397.26,84.01h12.18v-25.83c0-8.48,5.14-12.2,10.94-12.2s10.18,3.81,10.18,11.63v26.4h12.18v-28.88c0-12.49-7.23-19.73-18.55-19.73-7.14,0-11.13,2.86-13.99,6.58h-.76l-1.05-5.62h-11.13v47.65Z"/><path class="cls-1" d="M289.44,84.01h-12.18v-47.65h11.13l1.05,5.62h.76c2.86-3.72,6.85-6.58,13.99-6.58,11.32,0,18.55,7.24,18.55,19.73v28.88h-12.18v-26.4c0-7.82-4.47-11.63-10.18-11.63s-10.94,3.72-10.94,12.2v25.83Z"/></svg>